<svg width="30" height="30" viewBox="0 0 30 30" fill="none" xmlns="http://www.w3.org/2000/svg">
<rect width="30" height="30" rx="10" fill="white"/>
<g clip-path="url(#clip0_105_1119)">
<path d="M4.29741 24.7082H5.29177V25.7026L9.81131 23.1718V20.1887H6.82819L4.29741 24.7082ZM19.2578 10.7422L17.2692 4.93506C15.9665 5.62112 14.6142 6.53598 13.2916 7.77892L11.3029 18.6971L22.221 16.7083C23.464 15.3857 24.3788 14.0334 25.0649 12.7307L19.2578 10.7422Z" fill="url(#paint0_linear_105_1119)"/>
<path d="M26.9046 3.6722C26.8648 3.37384 26.6262 3.1352 26.3278 3.0954C26.0992 3.04581 21.9725 2.45898 17.2692 4.93506L17.2691 12.0277C17.2691 12.416 17.5839 12.7308 17.9723 12.7308L25.0649 12.7307C27.541 8.02754 26.9542 3.90085 26.9046 3.6722ZM13.9948 16.7084C13.6065 16.7084 13.2916 16.3936 13.2916 16.0052V7.77896C13.2886 7.77756 13.2904 7.7784 13.2873 7.77699C8.51794 12.2824 3.66347 20.7836 3.01458 23.863C2.97488 24.0619 3.01463 24.2807 3.15394 24.4398C3.29306 24.5988 3.48211 24.7083 3.70069 24.7082H4.29741L7.8226 21.1831C8.10103 20.9046 8.53852 20.9046 8.81696 21.1831C9.09539 21.4615 9.09539 21.899 8.81696 22.1774L5.29177 25.7026V26.2993C5.3138 26.7179 5.55539 26.8413 5.56022 26.8461C5.71931 26.9853 5.93808 27.0251 6.13702 26.9854C9.21642 26.3365 17.7175 21.4821 22.223 16.7127C22.2216 16.7096 22.2224 16.7114 22.221 16.7084H13.9948Z" fill="url(#paint1_linear_105_1119)"/>
</g>
<defs>
<linearGradient id="paint0_linear_105_1119" x1="4.79608" y1="25.2013" x2="21.1661" y2="8.8313" gradientUnits="userSpaceOnUse">
<stop stop-color="#ADDCFF"/>
<stop offset="0.5028" stop-color="#EAF6FF"/>
<stop offset="1" stop-color="#EAF6FF"/>
</linearGradient>
<linearGradient id="paint1_linear_105_1119" x1="4.35037" y1="25.647" x2="26.7113" y2="3.28608" gradientUnits="userSpaceOnUse">
<stop stop-color="#5558FF"/>
<stop offset="1" stop-color="#00C0FF"/>
</linearGradient>
<clipPath id="clip0_105_1119">
<rect width="24" height="24" fill="white" transform="translate(3 3)"/>
</clipPath>
</defs>
</svg>
