<svg width="27" height="26" viewBox="0 0 27 26" fill="none" xmlns="http://www.w3.org/2000/svg">
<path d="M5.33331 8.83333C5.33331 7.66656 5.33331 7.08317 5.56038 6.63752C5.76011 6.24552 6.07882 5.92681 6.47083 5.72707C6.91647 5.5 7.49986 5.5 8.66664 5.5C9.83341 5.5 10.4168 5.5 10.8625 5.72707C11.2545 5.92681 11.5732 6.24552 11.7729 6.63752C12 7.08317 12 7.66656 12 8.83333V17.1667C12 18.3334 12 18.9168 11.7729 19.3625C11.5732 19.7545 11.2545 20.0732 10.8625 20.2729C10.4168 20.5 9.83341 20.5 8.66664 20.5C7.49986 20.5 6.91647 20.5 6.47083 20.2729C6.07882 20.0732 5.76011 19.7545 5.56038 19.3625C5.33331 18.9168 5.33331 18.3334 5.33331 17.1667V8.83333Z" stroke="#2067FF" stroke-width="1.5" stroke-linecap="round" stroke-linejoin="round"/>
<path d="M8.66664 17.1667H8.67412" stroke="#2067FF" stroke-width="2" stroke-linecap="round" stroke-linejoin="round"/>
<path d="M5.33331 8.83334H12" stroke="#2067FF" stroke-width="1.5" stroke-linecap="round" stroke-linejoin="round"/>
<path d="M13.2072 9.89036C12.9114 8.78198 12.7635 8.2278 12.8654 7.74666C12.955 7.32344 13.1757 6.93956 13.4959 6.65004C13.8599 6.3209 14.4118 6.17241 15.5156 5.87542C16.6193 5.57843 17.1712 5.42994 17.6503 5.53221C18.0718 5.62217 18.4541 5.8438 18.7424 6.16534C19.0702 6.53089 19.218 7.08507 19.5138 8.19344L21.6261 16.1096C21.9219 17.218 22.0697 17.7722 21.9679 18.2533C21.8783 18.6766 21.6576 19.0604 21.3374 19.35C20.9734 19.6791 20.4215 19.8276 19.3177 20.1246C18.214 20.4216 17.6621 20.5701 17.1829 20.4678C16.7615 20.3778 16.3792 20.1562 16.0909 19.8347C15.7631 19.4691 15.6152 18.9149 15.3195 17.8066L13.2072 9.89036Z" stroke="#2067FF" stroke-width="1.5" stroke-linecap="round" stroke-linejoin="round"/>
<path d="M18.4843 16.9128L18.4916 16.9108" stroke="#2067FF" stroke-width="2" stroke-linecap="round" stroke-linejoin="round"/>
<path d="M13.6666 9.66682L19.0834 8" stroke="#2067FF" stroke-width="1.5" stroke-linecap="round" stroke-linejoin="round"/>
</svg>
