<svg width="30" height="30" viewBox="0 0 30 30" fill="none" xmlns="http://www.w3.org/2000/svg">
<rect width="30" height="30" rx="10" fill="white"/>
<g clip-path="url(#clip0_105_1109)">
<path d="M14.0625 8.15625C13.6742 8.15625 13.3594 7.84144 13.3594 7.45312V3.70312C13.3594 3.31481 13.6742 3 14.0625 3C14.4508 3 14.7656 3.31481 14.7656 3.70312V7.45312C14.7656 7.84144 14.4508 8.15625 14.0625 8.15625ZM20.3906 7.45312V3.70312C20.3906 3.31481 20.0758 3 19.6875 3C19.2992 3 18.9844 3.31481 18.9844 3.70312V7.45312C18.9844 7.84144 19.2992 8.15625 19.6875 8.15625C20.0758 8.15625 20.3906 7.84144 20.3906 7.45312ZM9.14062 7.45312V3.70312C9.14062 3.31481 8.82581 3 8.4375 3C8.04919 3 7.73438 3.31481 7.73438 3.70312V7.45312C7.73438 7.84144 8.04919 8.15625 8.4375 8.15625C8.82581 8.15625 9.14062 7.84144 9.14062 7.45312ZM24.6094 17.8677V10.2656H3.51562V22.9219C3.51562 24.085 4.46189 25.0312 5.625 25.0312H17.2413C18.1469 25.8195 19.3301 26.2969 20.625 26.2969C23.4727 26.2969 25.7812 23.9883 25.7812 21.1406C25.7812 19.8979 25.3416 18.758 24.6094 17.8677Z" fill="url(#paint0_linear_105_1109)"/>
<path d="M9.84375 16.5938H7.03125C6.64294 16.5938 6.32812 16.2789 6.32812 15.8906V13.0781C6.32812 12.6898 6.64294 12.375 7.03125 12.375H9.84375C10.2321 12.375 10.5469 12.6898 10.5469 13.0781V15.8906C10.5469 16.2789 10.2321 16.5938 9.84375 16.5938Z" fill="#FFB3B3"/>
<path d="M10.5469 18.7031V21.5156C10.5469 21.9039 10.2321 22.2188 9.84375 22.2188H7.03125C6.64294 22.2188 6.32812 21.9039 6.32812 21.5156V18.7031C6.32812 18.3148 6.64294 18 7.03125 18H9.84375C10.2321 18 10.5469 18.3148 10.5469 18.7031ZM12.6562 12.375C12.2679 12.375 11.9531 12.6898 11.9531 13.0781V15.8906C11.9531 16.2789 12.2679 16.5938 12.6562 16.5938H15.4688C15.8571 16.5938 16.1719 16.2789 16.1719 15.8906V13.0781C16.1719 12.6898 15.8571 12.375 15.4688 12.375H12.6562ZM24.6094 6.98438C24.6094 5.82127 23.6631 4.875 22.5 4.875H20.3906V7.45312C20.3906 7.84144 20.0758 8.15625 19.6875 8.15625C19.2992 8.15625 18.9844 7.84144 18.9844 7.45312V4.875H14.7656V7.45312C14.7656 7.84144 14.4508 8.15625 14.0625 8.15625C13.6742 8.15625 13.3594 7.84144 13.3594 7.45312V4.875H9.14062V7.45312C9.14062 7.84144 8.82581 8.15625 8.4375 8.15625C8.04919 8.15625 7.73438 7.84144 7.73438 7.45312V4.875H5.625C4.46189 4.875 3.51562 5.82127 3.51562 6.98438V10.2656H24.6094V6.98438ZM20.625 18.5625C20.2367 18.5625 19.9219 18.8773 19.9219 19.2656V20.4375H19.2188C18.8304 20.4375 18.5156 20.7523 18.5156 21.1406C18.5156 21.5289 18.8304 21.8438 19.2188 21.8438H20.625C21.0133 21.8438 21.3281 21.5289 21.3281 21.1406V19.2656C21.3281 18.8773 21.0133 18.5625 20.625 18.5625ZM9.84375 12.375H7.03125C6.64294 12.375 6.32812 12.6898 6.32812 13.0781V15.8906C6.32812 16.2789 6.64294 16.5938 7.03125 16.5938H9.84375C10.2321 16.5938 10.5469 16.2789 10.5469 15.8906V13.0781C10.5469 12.6898 10.2321 12.375 9.84375 12.375ZM26.4844 21.1406C26.4844 24.3715 23.8559 27 20.625 27C17.7624 27 15.373 24.9364 14.8654 22.2188H12.6562C12.2679 22.2188 11.9531 21.9039 11.9531 21.5156V18.7031C11.9531 18.3148 12.2679 18 12.6562 18H15.4688C15.5363 18 15.6013 18.0101 15.6631 18.0278C16.1544 17.2475 16.8244 16.5907 17.6153 16.1152C17.5916 16.0446 17.5781 15.9692 17.5781 15.8906V13.0781C17.5781 12.6898 17.8929 12.375 18.2812 12.375H21.0938C21.4821 12.375 21.7969 12.6898 21.7969 13.0781V15.399C24.4681 15.9435 26.4844 18.311 26.4844 21.1406ZM25.0781 21.1406C25.0781 18.6852 23.0805 16.6875 20.625 16.6875C18.1695 16.6875 16.1719 18.6852 16.1719 21.1406C16.1719 23.5961 18.1695 25.5938 20.625 25.5938C23.0805 25.5938 25.0781 23.5961 25.0781 21.1406Z" fill="url(#paint1_linear_105_1109)"/>
</g>
<defs>
<linearGradient id="paint0_linear_105_1109" x1="14.6484" y1="26.2969" x2="14.6484" y2="3" gradientUnits="userSpaceOnUse">
<stop stop-color="#5558FF"/>
<stop offset="1" stop-color="#00C0FF"/>
</linearGradient>
<linearGradient id="paint1_linear_105_1109" x1="15" y1="27" x2="15" y2="4.875" gradientUnits="userSpaceOnUse">
<stop stop-color="#ADDCFF"/>
<stop offset="0.5028" stop-color="#EAF6FF"/>
<stop offset="1" stop-color="#EAF6FF"/>
</linearGradient>
<clipPath id="clip0_105_1109">
<rect width="24" height="24" fill="white" transform="translate(3 3)"/>
</clipPath>
</defs>
</svg>
