<svg width="22" height="22" viewBox="0 0 22 22" fill="none" xmlns="http://www.w3.org/2000/svg">
<path d="M15.5833 5.5C17.7334 5.5 18.3501 5.5 19.0907 6.06828C19.2814 6.21458 19.4521 6.38524 19.5984 6.57591C20.1666 7.3165 20.1666 8.39156 20.1666 10.5417V14.6667C20.1666 17.2594 20.1666 18.5558 19.3612 19.3612C18.5557 20.1667 17.2594 20.1667 14.6666 20.1667H7.33331C4.74059 20.1667 3.44423 20.1667 2.63877 19.3612C1.83331 18.5558 1.83331 17.2594 1.83331 14.6667V10.5417C1.83331 8.39156 1.83331 7.3165 2.40159 6.57591C2.54789 6.38524 2.71856 6.21458 2.90922 6.06828C3.64981 5.5 4.26654 5.5 6.41665 5.5" stroke="#0F121C" stroke-width="1.5" stroke-linecap="round"/>
<path d="M15.5833 6.41668L14.7713 4.38665C14.4209 3.51081 14.1161 2.51727 13.2152 2.07127C12.7347 1.83334 12.1564 1.83334 11 1.83334C9.84349 1.83334 9.26526 1.83334 8.7847 2.07127C7.88385 2.51727 7.57897 3.51081 7.22863 4.38666L6.41663 6.41668" stroke="#0F121C" stroke-width="1.5" stroke-linecap="round" stroke-linejoin="round"/>
<path d="M14.2083 12.8333C14.2083 14.6052 12.7719 16.0417 11 16.0417C9.22805 16.0417 7.79163 14.6052 7.79163 12.8333C7.79163 11.0614 9.22805 9.625 11 9.625C12.7719 9.625 14.2083 11.0614 14.2083 12.8333Z" stroke="#0F121C" stroke-width="1.5"/>
<path d="M10.9998 5.5H11.0081" stroke="black" stroke-width="2" stroke-linecap="round" stroke-linejoin="round"/>
</svg>
