<svg width="22" height="22" viewBox="0 0 22 22" fill="none" xmlns="http://www.w3.org/2000/svg">
<path d="M2.75 10.0833C2.75 7.49062 2.75 6.19426 3.55546 5.3888C4.36091 4.58334 5.65728 4.58334 8.25 4.58334H10.0833C12.6761 4.58334 13.9724 4.58334 14.7779 5.3888C15.5833 6.19426 15.5833 7.49062 15.5833 10.0833V14.6667C15.5833 17.2594 15.5833 18.5558 14.7779 19.3612C13.9724 20.1667 12.6761 20.1667 10.0833 20.1667H8.25C5.65727 20.1667 4.36091 20.1667 3.55546 19.3612C2.75 18.5558 2.75 17.2594 2.75 14.6667L2.75 10.0833Z" stroke="black" stroke-width="1.5"/>
<path d="M7.37401 10.7819L7.72515 10.3628C8.39321 9.56538 8.72724 9.16669 9.16669 9.16669C9.60613 9.16669 9.94016 9.56538 10.6082 10.3628L10.9594 10.7819C11.5976 11.5436 11.9167 11.9245 11.9167 12.375C11.9167 12.8255 11.5976 13.2064 10.9594 13.9682L10.6082 14.3873C9.94016 15.1847 9.60613 15.5834 9.16669 15.5834C8.72724 15.5834 8.39321 15.1847 7.72515 14.3873L7.37401 13.9682C6.7358 13.2064 6.41669 12.8255 6.41669 12.375C6.41669 11.9245 6.7358 11.5436 7.37401 10.7819Z" stroke="black" stroke-width="1.5"/>
<path d="M15.514 17.4167C16.5185 16.8551 16.8602 15.6205 17.5435 13.1513L18.5098 9.65934C19.1932 7.19014 19.5348 5.95554 18.9549 4.98291C18.3749 4.01029 17.0998 3.67948 14.5497 3.01786L12.7465 2.55002C10.1963 1.8884 8.92125 1.55759 7.91674 2.11914C7.20157 2.51894 6.82239 3.25991 6.41669 4.54472" stroke="black" stroke-width="1.5"/>
</svg>
