<svg width="40" height="41" viewBox="0 0 40 41" fill="none" xmlns="http://www.w3.org/2000/svg">
<rect width="40" height="41" rx="20" fill="#60B864"/>
<circle cx="14" cy="24.5" r="4" stroke="white" stroke-width="1.5" stroke-linecap="round" stroke-linejoin="round"/>
<circle cx="26" cy="24.5" r="4" stroke="white" stroke-width="1.5" stroke-linecap="round" stroke-linejoin="round"/>
<path d="M14 24.5H18.3706C18.7302 24.5 19.0622 24.3069 19.2399 23.9942L23.5 16.5" stroke="white" stroke-width="1.5" stroke-linecap="round" stroke-linejoin="round"/>
<path d="M20 21.5L15 15.5M15 15.5H13M15 15.5L17 15.5" stroke="white" stroke-width="1.5" stroke-linecap="round" stroke-linejoin="round"/>
<path d="M23.0511 13.4062L22.3257 13.5968L22.3267 13.6005L23.0511 13.4062ZM25.3015 24.6943C25.4087 25.0943 25.82 25.3317 26.2201 25.2244C26.6202 25.1171 26.8576 24.7058 26.7503 24.3057L25.3015 24.6943ZM27.2781 14.9263C27.3905 15.3249 27.8048 15.557 28.2035 15.4446C28.6022 15.3323 28.8343 14.918 28.7219 14.5193L27.2781 14.9263ZM22.3267 13.6005L25.3015 24.6943L26.7503 24.3057L23.7755 13.212L22.3267 13.6005ZM23.7947 11.75C23.445 11.75 22.9254 11.8024 22.5679 12.1934C22.1754 12.6227 22.216 13.1795 22.3257 13.5968L23.7765 13.2156C23.7619 13.1601 23.7549 13.1196 23.7519 13.0921C23.7489 13.0646 23.7504 13.0548 23.75 13.059C23.7495 13.0639 23.7466 13.0844 23.7341 13.1139C23.7279 13.1286 23.7199 13.1443 23.7096 13.1604C23.6993 13.1765 23.6876 13.1917 23.6749 13.2056C23.649 13.234 23.6239 13.2514 23.6072 13.2609C23.5914 13.2698 23.5851 13.2705 23.5945 13.2679C23.6039 13.2652 23.6245 13.2604 23.6595 13.2565C23.6942 13.2526 23.7388 13.25 23.7947 13.25V11.75ZM28.7219 14.5193C28.3708 13.274 27.5762 12.5506 26.6224 12.1673C25.7171 11.8035 24.6813 11.75 23.7947 11.75V13.25C24.6584 13.25 25.444 13.3104 26.0631 13.5592C26.6338 13.7885 27.0668 14.1765 27.2781 14.9263L28.7219 14.5193Z" fill="white"/>
</svg>
