<svg width="40" height="41" viewBox="0 0 40 41" fill="none" xmlns="http://www.w3.org/2000/svg">
<rect width="40" height="41" rx="20" fill="#A73FB9"/>
<path d="M23 12.5L20 14.5L17 12.5C16.4142 13.0094 15.0707 13.7934 15.0035 14.6457C14.9743 15.0151 15.1288 15.2172 15.4378 15.6212C16.1116 16.5024 17 17.0201 17 18.5H23C23 17.0201 23.8884 16.5024 24.5622 15.6212C24.8712 15.2172 25.0257 15.0151 24.9965 14.6457C24.9293 13.7934 23.5858 13.0094 23 12.5Z" stroke="white" stroke-width="1.5" stroke-linecap="round" stroke-linejoin="round"/>
<path d="M17 12.5V10.5" stroke="white" stroke-width="1.5" stroke-linecap="round" stroke-linejoin="round"/>
<path d="M23 12.5V10.5" stroke="white" stroke-width="1.5" stroke-linecap="round" stroke-linejoin="round"/>
<path d="M17.5 18.5H22.5" stroke="white" stroke-width="1.5" stroke-linecap="round" stroke-linejoin="round"/>
<path d="M26 27.5C28 27.5 29 25.3272 29 25.3272C26.1754 23.4906 24.4999 21.3338 23.5872 19.7048C23.2397 19.0845 23.066 18.7744 22.8318 18.6372C22.5977 18.5 22.2846 18.5 21.6586 18.5H18.3414C17.7154 18.5 17.4023 18.5 17.1682 18.6372C16.934 18.7744 16.7603 19.0845 16.4128 19.7048C15.5001 21.3338 13.8246 23.4906 11 25.3272C11 25.3272 12 27.5 14 27.5" stroke="white" stroke-width="1.5" stroke-linecap="round" stroke-linejoin="round"/>
<path d="M21.7055 22.5C22.0451 23.2964 23.5206 25.1712 25.1412 26.8109C25.7382 27.4149 26.0367 27.7169 25.9964 28.2296C25.956 28.7423 25.7063 28.9131 25.2067 29.2546C24.0705 30.0314 22.335 30.5 20 30.5C17.665 30.5 15.9295 30.0314 14.7933 29.2546C14.2937 28.9131 14.044 28.7423 14.0036 28.2296C13.9633 27.7169 14.2618 27.4149 14.8588 26.8109C16.4794 25.1712 17.9549 23.2964 18.2945 22.5" stroke="white" stroke-width="1.5" stroke-linecap="round" stroke-linejoin="round"/>
</svg>
