<svg width="30" height="30" viewBox="0 0 30 30" fill="none" xmlns="http://www.w3.org/2000/svg">
<rect width="30" height="30" rx="10" fill="white"/>
<path d="M21.3281 25.5938H8.67188V22.1698C8.67188 19.3203 10.0362 16.6643 12.2954 15C10.0362 13.3356 8.67188 10.6797 8.67188 7.83014V4.40625H21.3281V7.83014C21.3281 10.6797 19.9638 13.3356 17.7046 15C19.9638 16.6643 21.3281 19.3203 21.3281 22.1698V25.5938ZM22.7344 25.5938H24.1406V4.40625H22.7344V25.5938ZM5.85938 25.5938H7.26562V4.40625H5.85938V25.5938Z" fill="url(#paint0_linear_105_1114)"/>
<path d="M23.4375 11.4844C24.3436 11.4844 25.0781 12.2189 25.0781 13.125V16.875C25.0781 17.7811 24.3436 18.5156 23.4375 18.5156C22.5314 18.5156 21.7969 17.7811 21.7969 16.875V13.125C21.7969 12.2189 22.5314 11.4844 23.4375 11.4844ZM6.5625 18.5156C7.46859 18.5156 8.20312 17.7811 8.20312 16.875V13.125C8.20312 12.2189 7.46859 11.4844 6.5625 11.4844C5.65641 11.4844 4.92188 12.2189 4.92188 13.125V16.875C4.92188 17.7811 5.65641 18.5156 6.5625 18.5156ZM15.3823 16.8443L15.342 16.8219C15.1295 16.7035 14.8705 16.7035 14.658 16.8219L14.6183 16.844C12.6852 17.9176 11.4844 19.9584 11.4844 22.17V23.4375C11.4844 23.8258 11.7992 24.1406 12.1875 24.1406H17.8125C18.2008 24.1406 18.5156 23.8258 18.5156 23.4375V22.17C18.5156 19.9584 17.3148 17.9176 15.3823 16.8443ZM18.5156 7.83005V6.5625C18.5156 6.17419 18.2008 5.85938 17.8125 5.85938H12.1875C11.7992 5.85938 11.4844 6.17419 11.4844 6.5625V7.83005C11.4844 10.0416 12.6852 12.0824 14.6183 13.156L14.658 13.1781C14.8705 13.2965 15.1295 13.2965 15.342 13.1781L15.3823 13.1557C17.3148 12.0824 18.5156 10.0416 18.5156 7.83005ZM25.5469 26.2969C25.5469 25.9086 25.2321 25.5938 24.8438 25.5938H5.15625C4.76794 25.5938 4.45312 25.9086 4.45312 26.2969C4.45312 26.6852 4.76794 27 5.15625 27H24.8438C25.2321 27 25.5469 26.6852 25.5469 26.2969ZM25.5469 3.70312C25.5469 3.31481 25.2321 3 24.8438 3H5.15625C4.76794 3 4.45312 3.31481 4.45312 3.70312C4.45312 4.09144 4.76794 4.40625 5.15625 4.40625H24.8438C25.2321 4.40625 25.5469 4.09144 25.5469 3.70312Z" fill="url(#paint1_linear_105_1114)"/>
<defs>
<linearGradient id="paint0_linear_105_1114" x1="15" y1="25.5938" x2="15" y2="4.40625" gradientUnits="userSpaceOnUse">
<stop stop-color="#A5D9FF"/>
<stop offset="1" stop-color="#F5FBFF"/>
</linearGradient>
<linearGradient id="paint1_linear_105_1114" x1="15" y1="27" x2="15" y2="3" gradientUnits="userSpaceOnUse">
<stop stop-color="#4D62FF"/>
<stop offset="1" stop-color="#1D9CFF"/>
</linearGradient>
</defs>
</svg>
