<svg width="40" height="41" viewBox="0 0 40 41" fill="none" xmlns="http://www.w3.org/2000/svg">
<rect width="40" height="41" rx="20" fill="#37A0F4"/>
<path d="M15.886 18.5C16.5717 19.8968 17.3044 21.2049 17.1352 22.8142C16.8647 25.3869 13.7451 26.3552 11.7502 27.5404C10.4432 28.3169 10.9319 30.5 12.5358 30.5C14.4805 30.5 16.2161 30.3448 17.9706 29.5201L21.4111 27.4028C21.8887 27.1783 22.4913 27.274 23 27.5" stroke="white" stroke-width="1.5" stroke-linecap="round" stroke-linejoin="round"/>
<path d="M24.0105 18.5C23.3102 19.8968 22.562 21.2049 22.7348 22.8142C23.0111 25.3869 26.1967 26.3552 28.2339 27.5404C29.5685 28.3169 29.0695 30.5 27.4316 30.5C25.4458 30.5 23.6734 30.3448 21.8817 29.5201L18.3683 27.4028C17.9582 27.214 17.4578 27.2517 17 27.4028" stroke="white" stroke-width="1.5" stroke-linecap="round" stroke-linejoin="round"/>
<path d="M18 12.5C18 13.6046 18.8954 14.5 20 14.5C21.1046 14.5 22 13.6046 22 12.5C22 11.3954 21.1046 10.5 20 10.5C18.8954 10.5 18 11.3954 18 12.5Z" stroke="white" stroke-width="1.5"/>
<path d="M11 24.5C13.4459 24.5 14.5437 21.7949 14.8933 19.9291C14.9846 19.4421 15.1325 18.9565 15.4563 18.5814C16.5565 17.3067 18.184 16.5 20 16.5C21.816 16.5 23.4435 17.3067 24.5437 18.5814C24.8675 18.9565 25.0154 19.4421 25.1067 19.9291C25.4563 21.7949 26.5541 24.5 29 24.5" stroke="white" stroke-width="1.5" stroke-linecap="round" stroke-linejoin="round"/>
</svg>
