<svg width="27" height="26" viewBox="0 0 27 26" fill="none" xmlns="http://www.w3.org/2000/svg">
<path d="M10.4964 5.12662C11.7255 4.36508 12.7982 4.67197 13.4427 5.16081C13.7069 5.36125 13.839 5.46147 13.9168 5.46147C13.9945 5.46147 14.1266 5.36125 14.3908 5.16081C15.0353 4.67197 16.108 4.36508 17.3371 5.12662C18.9501 6.12606 19.3151 9.42324 15.5945 12.205C14.8858 12.7348 14.5315 12.9997 13.9168 12.9997C13.302 12.9997 12.9477 12.7348 12.239 12.205C8.51837 9.42324 8.88337 6.12606 10.4964 5.12662Z" stroke="#2067FF" stroke-width="1.5" stroke-linecap="round"/>
<path d="M6.83342 14.6667H8.8291C9.07423 14.6667 9.31598 14.7219 9.53523 14.828L11.2369 15.6513C11.4561 15.7574 11.6979 15.8126 11.943 15.8126H12.8119C13.6522 15.8126 14.3334 16.4718 14.3334 17.285C14.3334 17.3179 14.3109 17.3467 14.2782 17.3558L12.1608 17.9412C11.781 18.0462 11.3743 18.0096 11.0209 17.8387L9.20184 16.9585" stroke="#2067FF" stroke-width="1.5" stroke-linecap="round" stroke-linejoin="round"/>
<path d="M14.3334 16.75L18.1607 15.5741C18.8392 15.3627 19.5727 15.6134 19.9977 16.2019C20.305 16.6275 20.1799 17.2368 19.7321 17.4951L13.4692 21.1088C13.0708 21.3386 12.6009 21.3947 12.1627 21.2647L6.83342 19.6833" stroke="#2067FF" stroke-width="1.5" stroke-linecap="round" stroke-linejoin="round"/>
</svg>
