<svg width="22" height="22" viewBox="0 0 22 22" fill="none" xmlns="http://www.w3.org/2000/svg">
<path d="M13.75 4.58333C13.75 6.10211 12.5188 7.33333 11 7.33333C9.48122 7.33333 8.25 6.10211 8.25 4.58333C8.25 3.06455 9.48122 1.83333 11 1.83333C12.5188 1.83333 13.75 3.06455 13.75 4.58333Z" stroke="black" stroke-width="1.5"/>
<path d="M7.33331 17.4167C7.33331 18.9354 6.1021 20.1667 4.58331 20.1667C3.06453 20.1667 1.83331 18.9354 1.83331 17.4167C1.83331 15.8979 3.06453 14.6667 4.58331 14.6667C6.1021 14.6667 7.33331 15.8979 7.33331 17.4167Z" stroke="black" stroke-width="1.5"/>
<path d="M20.1666 17.4167C20.1666 18.9354 18.9354 20.1667 17.4166 20.1667C15.8978 20.1667 14.6666 18.9354 14.6666 17.4167C14.6666 15.8979 15.8978 14.6667 17.4166 14.6667C18.9354 14.6667 20.1666 15.8979 20.1666 17.4167Z" stroke="black" stroke-width="1.5"/>
<path d="M11 7.33333V11M11 11H7.79165C6.27922 11 5.52301 11 5.05316 11.4027C4.58331 11.8055 4.58331 12.4536 4.58331 13.75V14.6667M11 11H14.2083C15.7207 11 16.4769 11 16.9468 11.4027C17.4166 11.8055 17.4166 12.4536 17.4166 13.75V14.6667" stroke="black" stroke-width="1.5" stroke-linecap="round" stroke-linejoin="round"/>
</svg>
