<svg width="22" height="22" viewBox="0 0 22 22" fill="none" xmlns="http://www.w3.org/2000/svg">
<path d="M8.61808 17.6569L8.42882 18.3826L8.61808 17.6569ZM7.37149 16.1457L6.65679 16.3731V16.3731L7.37149 16.1457ZM7.67448 16.9444L7.03308 17.3331L7.67448 16.9444ZM14.627 16.1457L15.3417 16.3731V16.3731L14.627 16.1457ZM14.324 16.9444L14.9654 17.3331L14.324 16.9444ZM13.3804 17.6569L13.5696 18.3826L13.3804 17.6569ZM14.4316 15.2782L14.7137 14.5833L14.4316 15.2782ZM14.731 15.7135L15.4803 15.6792L14.731 15.7135ZM7.5669 15.2782L7.2848 14.5833L7.5669 15.2782ZM7.26742 15.7135L6.5182 15.6792L7.26742 15.7135ZM14.0929 17.8466C14.1709 17.4398 13.9043 17.0468 13.4975 16.9689C13.0906 16.8909 12.6977 17.1575 12.6197 17.5643L14.0929 17.8466ZM13.2547 18.2358L12.5181 18.0947V18.0947L13.2547 18.2358ZM8.74366 18.2358L9.48026 18.0947V18.0947L8.74366 18.2358ZM9.37865 17.5643C9.3007 17.1575 8.90773 16.8909 8.50091 16.9689C8.0941 17.0468 7.8275 17.4398 7.90544 17.8466L9.37865 17.5643ZM9.9097 20.0835L9.66564 20.7927H9.66564L9.9097 20.0835ZM9.0348 19.3348L8.37577 19.6928H8.37577L9.0348 19.3348ZM12.9636 19.3348L13.6226 19.6928L13.6226 19.6928L12.9636 19.3348ZM12.0887 20.0835L12.3327 20.7927L12.0887 20.0835ZM7.99118 15.9949H14.0073V14.4949H7.99118V15.9949ZM12.5613 16.9555H9.43713V18.4555H12.5613V16.9555ZM9.43713 16.9555C8.97272 16.9555 8.87801 16.9496 8.80734 16.9312L8.42882 18.3826C8.73066 18.4613 9.05782 18.4555 9.43713 18.4555V16.9555ZM6.65679 16.3731C6.77806 16.7542 6.87269 17.0685 7.03308 17.3331L8.31588 16.5557C8.2705 16.4808 8.23173 16.3757 8.08619 15.9183L6.65679 16.3731ZM8.80734 16.9312C8.61243 16.8803 8.4338 16.7502 8.31588 16.5557L7.03308 17.3331C7.34623 17.8498 7.84334 18.2299 8.42882 18.3826L8.80734 16.9312ZM13.9123 15.9183C13.7667 16.3757 13.728 16.4808 13.6826 16.5557L14.9654 17.3331C15.1258 17.0685 15.2204 16.7542 15.3417 16.3731L13.9123 15.9183ZM12.5613 18.4555C12.9406 18.4555 13.2678 18.4613 13.5696 18.3826L13.1911 16.9312C13.1205 16.9496 13.0257 16.9555 12.5613 16.9555V18.4555ZM13.6826 16.5557C13.5647 16.7502 13.386 16.8803 13.1911 16.9312L13.5696 18.3826C14.1551 18.2299 14.6522 17.8498 14.9654 17.3331L13.6826 16.5557ZM14.0073 15.9949C14.0656 15.9949 14.1108 15.995 14.1495 15.9954C14.1884 15.9959 14.2125 15.9967 14.2281 15.9977C14.2438 15.9987 14.2417 15.9992 14.229 15.9969C14.2149 15.9944 14.1861 15.988 14.1495 15.9731L14.7137 14.5833C14.5616 14.5215 14.418 14.5065 14.3205 14.5005C14.2247 14.4946 14.1119 14.4949 14.0073 14.4949V15.9949ZM15.3417 16.3731C15.3751 16.268 15.41 16.1592 15.4341 16.0656C15.4585 15.9707 15.4874 15.8351 15.4803 15.6792L13.9818 15.7478C13.9789 15.6838 13.9919 15.6509 13.9812 15.6924C13.9766 15.7104 13.9692 15.7364 13.9572 15.7757C13.9451 15.815 13.9307 15.8605 13.9123 15.9183L15.3417 16.3731ZM14.1495 15.9731C14.0374 15.9276 13.9856 15.8305 13.9818 15.7478L15.4803 15.6792C15.4587 15.2077 15.1722 14.7694 14.7137 14.5833L14.1495 15.9731ZM7.99118 14.4949C7.88657 14.4949 7.77376 14.4946 7.67793 14.5005C7.58045 14.5065 7.43688 14.5215 7.2848 14.5833L7.84899 15.9731C7.81241 15.988 7.78359 15.9944 7.76943 15.9969C7.75681 15.9992 7.75462 15.9987 7.77036 15.9977C7.78599 15.9967 7.81009 15.9959 7.84894 15.9954C7.88769 15.995 7.93282 15.9949 7.99118 15.9949V14.4949ZM8.08619 15.9183C8.06778 15.8605 8.05334 15.815 8.0413 15.7757C8.02924 15.7364 8.02186 15.7104 8.01723 15.6924C8.00657 15.6509 8.01956 15.6838 8.01664 15.7478L6.5182 15.6792C6.51107 15.8351 6.54001 15.9707 6.56439 16.0656C6.58844 16.1592 6.62335 16.268 6.65679 16.3731L8.08619 15.9183ZM7.2848 14.5833C6.82628 14.7694 6.53978 15.2077 6.5182 15.6792L8.01664 15.7478C8.01285 15.8305 7.96111 15.9276 7.84899 15.9731L7.2848 14.5833ZM12.6197 17.5643L12.5181 18.0947L13.9913 18.3769L14.0929 17.8466L12.6197 17.5643ZM9.48026 18.0947L9.37865 17.5643L7.90544 17.8466L8.00705 18.3769L9.48026 18.0947ZM10.9992 19.416C10.3749 19.416 10.2457 19.406 10.1538 19.3743L9.66564 20.7927C10.053 20.926 10.4904 20.916 10.9992 20.916V19.416ZM8.00705 18.3769C8.10792 18.9034 8.18191 19.336 8.37577 19.6928L9.69383 18.9768C9.63872 18.8753 9.60161 18.7281 9.48026 18.0947L8.00705 18.3769ZM10.1538 19.3743C9.96614 19.3098 9.79962 19.1715 9.69383 18.9768L8.37577 19.6928C8.65494 20.2067 9.11214 20.6022 9.66564 20.7927L10.1538 19.3743ZM12.5181 18.0947C12.3968 18.7281 12.3597 18.8753 12.3045 18.9768L13.6226 19.6928C13.8165 19.336 13.8905 18.9034 13.9913 18.3769L12.5181 18.0947ZM10.9992 20.916C11.508 20.916 11.9454 20.926 12.3327 20.7927L11.8446 19.3743C11.7526 19.406 11.6235 19.416 10.9992 19.416V20.916ZM12.3045 18.9768C12.1988 19.1715 12.0322 19.3098 11.8446 19.3743L12.3327 20.7927C12.8862 20.6022 13.3434 20.2067 13.6226 19.6928L12.3045 18.9768Z" fill="black"/>
<path d="M5.58189 13.75C5.23502 12.9703 5.04163 12.1028 5.04163 11.1887C5.04163 7.79379 7.70926 5.04166 11 5.04166C14.2907 5.04166 16.9583 7.79379 16.9583 11.1887C16.9583 12.1028 16.7649 12.9703 16.418 13.75" stroke="black" stroke-width="1.5" stroke-linecap="round"/>
<path d="M11 1.83333V2.74999" stroke="black" stroke-width="1.5" stroke-linecap="round" stroke-linejoin="round"/>
<path d="M20.1666 11L19.25 11" stroke="black" stroke-width="1.5" stroke-linecap="round" stroke-linejoin="round"/>
<path d="M2.75 11L1.83333 11" stroke="black" stroke-width="1.5" stroke-linecap="round" stroke-linejoin="round"/>
<path d="M17.4811 4.5182L16.8329 5.16638" stroke="black" stroke-width="1.5" stroke-linecap="round" stroke-linejoin="round"/>
<path d="M5.16699 5.16676L4.51881 4.51858" stroke="black" stroke-width="1.5" stroke-linecap="round" stroke-linejoin="round"/>
</svg>
