<svg width="27" height="26" viewBox="0 0 27 26" fill="none" xmlns="http://www.w3.org/2000/svg">
<path d="M13 15.5H14.6667" stroke="#2067FF" stroke-width="1.5" stroke-linecap="round" stroke-linejoin="round"/>
<path d="M13.8333 18V21.3333" stroke="#2067FF" stroke-width="1.5"/>
<path d="M10.5 21.3333H17.1667" stroke="#2067FF" stroke-width="1.5" stroke-linecap="round"/>
<path d="M11.3333 4.66748C9.14545 4.67445 7.96375 4.73938 7.09909 5.34482C6.74076 5.59573 6.42909 5.9074 6.17818 6.26573C5.5 7.23427 5.5 8.60062 5.5 11.3333C5.5 14.066 5.5 15.4323 6.17818 16.4009C6.42909 16.7592 6.74076 17.0709 7.09909 17.3218C8.06763 18 9.43398 18 12.1667 18H15.5C18.2327 18 19.599 18 20.5676 17.3218C20.9259 17.0709 21.2376 16.7592 21.4885 16.4009C22.0939 15.5362 22.1589 14.3545 22.1658 12.1666" stroke="#2067FF" stroke-width="1.5" stroke-linecap="round"/>
<path d="M20.0833 6.45525L20.1358 6.41737C21.0174 5.78091 21.4582 5.46267 21.8124 5.61633C22.1667 5.76999 22.1667 6.27941 22.1667 7.29825V7.8684C22.1667 8.88724 22.1667 9.39666 21.8124 9.55031C21.4582 9.70397 21.0174 9.38574 20.1358 8.74927L20.0833 8.7114M16.75 10.5H17.1667C18.5416 10.5 19.2291 10.5 19.6562 10.1262C20.0833 9.7525 20.0833 9.15097 20.0833 7.94791V7.21874C20.0833 6.01568 20.0833 5.41414 19.6562 5.0404C19.2291 4.66666 18.5416 4.66666 17.1667 4.66666H16.75C15.3751 4.66666 14.6876 4.66666 14.2605 5.0404C13.8333 5.41414 13.8333 6.01568 13.8333 7.21874V7.94791C13.8333 9.15097 13.8333 9.7525 14.2605 10.1262C14.6876 10.5 15.3751 10.5 16.75 10.5Z" stroke="#2067FF" stroke-width="1.5" stroke-linecap="round"/>
</svg>
