<svg width="40" height="41" viewBox="0 0 40 41" fill="none" xmlns="http://www.w3.org/2000/svg">
<rect width="40" height="41" rx="20" fill="#FFA31C"/>
<path d="M16.4983 14C16.4983 15.933 18.2892 17.5 20.4983 17.5C22.7074 17.5 24.4983 15.933 24.4983 14C24.4983 12.067 22.7074 10.5 20.4983 10.5C18.2892 10.5 16.4983 12.067 16.4983 14Z" stroke="white" stroke-width="1.5"/>
<path d="M11.5526 23.5515L12.2973 23.6405L11.5526 23.5515ZM14.4474 23.5515L15.1921 23.4624L14.4474 23.5515ZM14.621 22.2738L15.3128 22.5634L14.621 22.2738ZM14.9951 28.171L14.2464 28.2148L14.9951 28.171ZM11.0049 28.171L10.2561 28.1271V28.1271L11.0049 28.171ZM11.379 22.2738L10.6872 22.5634L10.6872 22.5634L11.379 22.2738ZM11.0727 20.9585L10.4085 20.6101L10.4066 20.6138L11.0727 20.9585ZM14.9273 20.9585L15.5935 20.6138L15.5915 20.6101L14.9273 20.9585ZM12.2491 20.5C12.2491 20.9142 12.5849 21.25 12.9991 21.25C13.4133 21.25 13.7491 20.9142 13.7491 20.5H12.2491ZM20.4991 11.25C20.9133 11.25 21.2491 10.9142 21.2491 10.5C21.2491 10.0858 20.9133 9.75 20.4991 9.75V11.25ZM13.8995 13.0488C13.6507 13.3799 13.7175 13.8501 14.0486 14.0989C14.3798 14.3477 14.8499 14.2809 15.0987 13.9498L13.8995 13.0488ZM13.9917 16.1995C14.1019 15.8003 13.8676 15.3872 13.4683 15.277C13.069 15.1668 12.656 15.4012 12.5458 15.8005L13.9917 16.1995ZM10.6872 22.5634C10.8262 22.8954 10.8409 22.9473 10.8466 22.9896C10.8528 23.0348 10.8519 23.0952 10.8079 23.4624L12.2973 23.6405C12.3328 23.3438 12.3707 23.0653 12.333 22.7876C12.2948 22.5071 12.183 22.2522 12.0708 21.9842L10.6872 22.5634ZM15.1921 23.4624C15.1481 23.0952 15.1472 23.0348 15.1534 22.9896C15.1591 22.9473 15.1738 22.8954 15.3128 22.5634L13.9292 21.9842C13.817 22.2522 13.7052 22.5071 13.667 22.7876C13.6293 23.0653 13.6672 23.3438 13.7027 23.6405L15.1921 23.4624ZM15.7439 28.1271C15.652 26.5594 15.3677 24.9311 15.1921 23.4624L13.7027 23.6405C13.8927 25.2288 14.1578 26.7016 14.2464 28.2148L15.7439 28.1271ZM10.8079 23.4624C10.6323 24.9311 10.348 26.5594 10.2561 28.1271L11.7536 28.2148C11.8422 26.7016 12.1073 25.2288 12.2973 23.6405L10.8079 23.4624ZM13 29.75C12.3581 29.75 11.695 29.2152 11.7536 28.2148L10.2561 28.1271C10.1494 29.949 11.4557 31.25 13 31.25V29.75ZM13 31.25C14.5443 31.25 15.8506 29.949 15.7439 28.1271L14.2464 28.2148C14.305 29.2152 13.6419 29.75 13 29.75V31.25ZM11.7368 21.3069C11.6511 21.4704 11.5362 21.4982 11.6179 21.4603C11.6672 21.4374 11.7609 21.4048 11.9059 21.3718C12.1916 21.3067 12.5793 21.2619 12.9844 21.252C13.3913 21.2421 13.7755 21.2686 14.059 21.3268C14.2019 21.3562 14.2913 21.3881 14.3371 21.4106C14.3939 21.4386 14.3229 21.4208 14.2632 21.3069L15.5915 20.6101C15.4407 20.3226 15.1895 20.1583 14.9997 20.0649C14.7988 19.966 14.575 19.9015 14.3609 19.8575C13.9303 19.769 13.4249 19.7409 12.948 19.7525C12.4692 19.7641 11.9786 19.8168 11.5728 19.9092C11.372 19.9549 11.1667 20.016 10.9862 20.0998C10.8381 20.1685 10.5628 20.316 10.4085 20.6101L11.7368 21.3069ZM12.0708 21.9842C12.0296 21.8856 11.9666 21.7551 11.9265 21.6683C11.8789 21.5652 11.8389 21.4729 11.8092 21.3878C11.7787 21.3001 11.7686 21.2462 11.7666 21.22C11.7647 21.1953 11.7731 21.2369 11.7388 21.3032L10.4066 20.6138C10.1533 21.1033 10.3027 21.6231 10.3927 21.8814C10.4469 22.0368 10.5115 22.182 10.5648 22.2973C10.6255 22.4289 10.6597 22.4977 10.6872 22.5634L12.0708 21.9842ZM15.3128 22.5634C15.3403 22.4977 15.3745 22.4289 15.4352 22.2973C15.4885 22.182 15.5531 22.0368 15.6073 21.8814C15.6973 21.6231 15.8467 21.1033 15.5934 20.6138L14.2612 21.3032C14.2269 21.2369 14.2353 21.1953 14.2334 21.22C14.2314 21.2462 14.2213 21.3001 14.1908 21.3878C14.1611 21.4729 14.1211 21.5652 14.0735 21.6683C14.0334 21.7551 13.9704 21.8856 13.9292 21.9842L15.3128 22.5634ZM12.2491 18V20.5H13.7491L13.7491 18H12.2491ZM20.4991 9.75C17.7999 9.75 15.4034 11.0471 13.8995 13.0488L15.0987 13.9498C16.3315 12.309 18.2915 11.25 20.4991 11.25V9.75ZM12.5458 15.8005C12.3523 16.5016 12.2491 17.2393 12.2491 18H13.7491C13.7491 17.3755 13.8337 16.7719 13.9917 16.1995L12.5458 15.8005Z" fill="white"/>
<path d="M26.5544 23.5515L27.2991 23.6405L26.5544 23.5515ZM29.4491 23.5515L30.1938 23.4624L29.4491 23.5515ZM29.6227 22.2738L30.3146 22.5634L29.6227 22.2738ZM29.9969 28.171L29.2482 28.2148L29.9969 28.171ZM26.0066 28.171L25.2579 28.1271V28.1271L26.0066 28.171ZM26.3808 22.2738L25.689 22.5634L25.689 22.5634L26.3808 22.2738ZM26.0744 20.9585L25.4102 20.6101L25.4083 20.6138L26.0744 20.9585ZM29.9291 20.9585L30.5952 20.6138L30.5933 20.6101L29.9291 20.9585ZM27.25 20.5C27.25 20.9142 27.5858 21.25 28 21.25C28.4142 21.25 28.75 20.9142 28.75 20.5H27.25ZM20.5 9.75C20.0858 9.75 19.75 10.0858 19.75 10.5C19.75 10.9142 20.0858 11.25 20.5 11.25V9.75ZM25.689 22.5634C25.8279 22.8954 25.8426 22.9473 25.8484 22.9896C25.8545 23.0348 25.8536 23.0952 25.8097 23.4624L27.2991 23.6405C27.3346 23.3438 27.3724 23.0653 27.3347 22.7876C27.2966 22.5071 27.1848 22.2522 27.0726 21.9842L25.689 22.5634ZM30.1938 23.4624C30.1499 23.0952 30.149 23.0348 30.1551 22.9896C30.1609 22.9473 30.1756 22.8954 30.3146 22.5634L28.9309 21.9842C28.8187 22.2522 28.7069 22.5071 28.6688 22.7876C28.6311 23.0653 28.6689 23.3438 28.7044 23.6405L30.1938 23.4624ZM30.7456 28.1271C30.6538 26.5594 30.3695 24.9311 30.1938 23.4624L28.7044 23.6405C28.8944 25.2288 29.1595 26.7016 29.2482 28.2148L30.7456 28.1271ZM25.8097 23.4624C25.634 24.9311 25.3497 26.5594 25.2579 28.1271L26.7553 28.2148C26.844 26.7016 27.1091 25.2288 27.2991 23.6405L25.8097 23.4624ZM28.0018 29.75C27.3598 29.75 26.6967 29.2152 26.7553 28.2148L25.2579 28.1271C25.1512 29.949 26.4575 31.25 28.0018 31.25L28.0018 29.75ZM28.0018 31.25C29.546 31.25 30.8524 29.949 30.7456 28.1271L29.2482 28.2148C29.3068 29.2152 28.6437 29.75 28.0018 29.75L28.0018 31.25ZM26.7386 21.3069C26.6528 21.4704 26.5379 21.4982 26.6196 21.4603C26.6689 21.4374 26.7627 21.4048 26.9076 21.3718C27.1934 21.3067 27.581 21.2619 27.9862 21.252C28.3931 21.2421 28.7772 21.2686 29.0607 21.3268C29.2036 21.3562 29.293 21.3881 29.3389 21.4106C29.3957 21.4386 29.3247 21.4208 29.2649 21.3069L30.5933 20.6101C30.4425 20.3226 30.1912 20.1583 30.0014 20.0649C29.8006 19.966 29.5768 19.9015 29.3626 19.8575C28.9321 19.769 28.4267 19.7409 27.9497 19.7525C27.471 19.7641 26.9804 19.8168 26.5746 19.9092C26.3737 19.9549 26.1685 20.016 25.988 20.0998C25.8399 20.1685 25.5645 20.316 25.4103 20.6101L26.7386 21.3069ZM27.0726 21.9842C27.0313 21.8856 26.9684 21.7551 26.9283 21.6683C26.8807 21.5652 26.8406 21.4729 26.811 21.3878C26.7804 21.3001 26.7703 21.2462 26.7683 21.22C26.7664 21.1953 26.7748 21.2369 26.7405 21.3032L25.4083 20.6138C25.155 21.1033 25.3045 21.6231 25.3945 21.8814C25.4487 22.0368 25.5133 22.182 25.5665 22.2973C25.6273 22.4289 25.6615 22.4977 25.689 22.5634L27.0726 21.9842ZM30.3146 22.5634C30.3421 22.4977 30.3762 22.4289 30.437 22.2973C30.4903 22.182 30.5549 22.0368 30.609 21.8814C30.699 21.6231 30.8485 21.1033 30.5952 20.6138L29.263 21.3032C29.2287 21.2369 29.2371 21.1953 29.2352 21.22C29.2332 21.2462 29.2231 21.3001 29.1925 21.3878C29.1629 21.4729 29.1228 21.5652 29.0752 21.6683C29.0351 21.7551 28.9722 21.8856 28.9309 21.9842L30.3146 22.5634ZM27.25 18L27.25 20.5H28.75V18H27.25ZM20.5 11.25C24.2279 11.25 27.25 14.2721 27.25 18H28.75C28.75 13.4437 25.0563 9.75 20.5 9.75V11.25Z" fill="white"/>
</svg>
