<svg width="22" height="22" viewBox="0 0 22 22" fill="none" xmlns="http://www.w3.org/2000/svg">
<path d="M1.83331 7.33333C1.83331 8.5633 9.26397 11.9167 11 11.9167C12.736 11.9167 20.1666 8.5633 20.1666 7.33333C20.1666 6.10337 12.736 2.75 11 2.75C9.26397 2.75 1.83331 6.10337 1.83331 7.33333Z" stroke="black" stroke-width="1.5" stroke-linecap="round" stroke-linejoin="round"/>
<path d="M5.5 10.0833L6.64843 15.3994C6.72709 15.7635 6.90868 16.1037 7.21148 16.3207C9.25065 17.782 12.7493 17.782 14.7885 16.3207C15.0913 16.1037 15.2729 15.7635 15.3516 15.3994L16.5 10.0833" stroke="black" stroke-width="1.5" stroke-linecap="round" stroke-linejoin="round"/>
<path d="M19.5416 8.70834C19.5416 8.29412 19.2058 7.95834 18.7916 7.95834C18.3774 7.95834 18.0416 8.29412 18.0416 8.70834H19.5416ZM17.4821 18.1165L18.2118 18.2898L17.4821 18.1165ZM20.1012 18.1165L20.8308 17.9431L20.1012 18.1165ZM18.0416 8.70834V15.1316H19.5416V8.70834H18.0416ZM18.2118 18.2898C18.3429 17.738 18.5687 17.2323 18.8123 16.7556C19.0336 16.3227 19.3307 15.8083 19.4892 15.4071L18.0941 14.8561C17.97 15.1703 17.7638 15.5111 17.4766 16.0731C17.2117 16.5914 16.9241 17.2205 16.7524 17.9431L18.2118 18.2898ZM20.8308 17.9431C20.6592 17.2205 20.3715 16.5914 20.1066 16.0731C19.8195 15.5111 19.6133 15.1703 19.4892 14.8561L18.0941 15.4071C18.2525 15.8083 18.5497 16.3227 18.7709 16.7556C19.0145 17.2323 19.2404 17.738 19.3715 18.2898L20.8308 17.9431ZM19.0808 18.5H18.5025V20H19.0808V18.5ZM16.7524 17.9431C16.6389 18.4207 16.5625 19.0819 17.0364 19.5573C17.2579 19.7794 17.5295 19.8822 17.7641 19.9343C17.998 19.9861 18.2527 20 18.5025 20V18.5C18.295 18.5 18.1662 18.487 18.0889 18.4699C18.0124 18.4529 18.0452 18.4446 18.0986 18.4982C18.1262 18.5258 18.1462 18.5573 18.1582 18.5855C18.1692 18.6114 18.1687 18.6234 18.1676 18.6112C18.1645 18.5779 18.166 18.4826 18.2118 18.2898L16.7524 17.9431ZM19.3715 18.2898C19.4173 18.4826 19.4188 18.5779 19.4157 18.6112C19.4145 18.6234 19.4141 18.6114 19.4251 18.5855C19.437 18.5573 19.457 18.5258 19.4846 18.4982C19.538 18.4446 19.5709 18.4529 19.4943 18.4699C19.417 18.487 19.2883 18.5 19.0808 18.5V20C19.3306 20 19.5852 19.9861 19.8191 19.9343C20.0537 19.8822 20.3254 19.7794 20.5469 19.5573C21.0208 19.0819 20.9443 18.4207 20.8308 17.9431L19.3715 18.2898Z" fill="black"/>
</svg>
