<svg width="22" height="22" viewBox="0 0 22 22" fill="none" xmlns="http://www.w3.org/2000/svg">
<path d="M4.7285 10.5334C4.66115 11.8131 4.73858 13.1752 3.59529 14.0327C3.06317 14.4318 2.75 15.0581 2.75 15.7233C2.75 16.6383 3.46665 17.4167 4.4 17.4167H17.6C18.5333 17.4167 19.25 16.6383 19.25 15.7233C19.25 15.0581 18.9368 14.4318 18.4047 14.0327C17.2614 13.1752 17.3388 11.8131 17.2715 10.5334C17.0959 7.19788 14.3402 4.58334 11 4.58334C7.65983 4.58334 4.90406 7.19788 4.7285 10.5334Z" stroke="#0F121C" stroke-width="1.5" stroke-linecap="round" stroke-linejoin="round"/>
<path d="M9.625 2.86459C9.625 3.62399 10.2406 4.58334 11 4.58334C11.7594 4.58334 12.375 3.62399 12.375 2.86459C12.375 2.1052 11.7594 1.83334 11 1.83334C10.2406 1.83334 9.625 2.1052 9.625 2.86459Z" stroke="#0F121C" stroke-width="1.5"/>
<path d="M13.75 17.4167C13.75 18.9355 12.5188 20.1667 11 20.1667C9.48122 20.1667 8.25 18.9355 8.25 17.4167" stroke="#0F121C" stroke-width="1.5" stroke-linecap="round" stroke-linejoin="round"/>
</svg>
