<svg width="30" height="30" viewBox="0 0 30 30" fill="none" xmlns="http://www.w3.org/2000/svg">
<path d="M19.9219 3H8.67188C7.50872 3 6.5625 3.94622 6.5625 5.10938V13.5469C6.5625 14.71 7.50872 15.6562 8.67188 15.6562H19.9219C21.085 15.6562 22.0312 14.71 22.0312 13.5469V5.10938C22.0312 3.94622 21.085 3 19.9219 3Z" fill="#2067FF"/>
<path d="M10.0781 8.625C9.68981 8.625 9.375 8.93981 9.375 9.32812C9.375 9.71644 9.68981 10.0312 10.0781 10.0312C10.4664 10.0312 10.7812 9.71644 10.7812 9.32812C10.7812 8.93981 10.4664 8.625 10.0781 8.625ZM15.7031 10.0312C16.0914 10.0312 16.4062 9.71644 16.4062 9.32812C16.4062 8.93981 16.0914 8.625 15.7031 8.625C15.3148 8.625 15 8.93981 15 9.32812C15 9.71644 15.3148 10.0312 15.7031 10.0312ZM12.8906 7.21875C13.2789 7.21875 13.5938 6.90394 13.5938 6.51562C13.5938 6.12731 13.2789 5.8125 12.8906 5.8125C12.5023 5.8125 12.1875 6.12731 12.1875 6.51562C12.1875 6.90394 12.5023 7.21875 12.8906 7.21875ZM15.7031 7.21875C16.0914 7.21875 16.4062 6.90394 16.4062 6.51562C16.4062 6.12731 16.0914 5.8125 15.7031 5.8125C15.3148 5.8125 15 6.12731 15 6.51562C15 6.90394 15.3148 7.21875 15.7031 7.21875ZM12.8906 10.0312C13.2789 10.0312 13.5938 9.71644 13.5938 9.32812C13.5938 8.93981 13.2789 8.625 12.8906 8.625C12.5023 8.625 12.1875 8.93981 12.1875 9.32812C12.1875 9.71644 12.5023 10.0312 12.8906 10.0312ZM10.0781 11.4375C9.68981 11.4375 9.375 11.7523 9.375 12.1406C9.375 12.5289 9.68981 12.8438 10.0781 12.8438C10.4664 12.8438 10.7812 12.5289 10.7812 12.1406C10.7812 11.7523 10.4664 11.4375 10.0781 11.4375ZM18.5156 10.0312C18.9039 10.0312 19.2188 9.71644 19.2188 9.32812C19.2188 8.93981 18.9039 8.625 18.5156 8.625C18.1273 8.625 17.8125 8.93981 17.8125 9.32812C17.8125 9.71644 18.1273 10.0312 18.5156 10.0312ZM18.5156 12.8438C18.9039 12.8438 19.2188 12.5289 19.2188 12.1406C19.2188 11.7523 18.9039 11.4375 18.5156 11.4375C18.1273 11.4375 17.8125 11.7523 17.8125 12.1406C17.8125 12.5289 18.1273 12.8438 18.5156 12.8438ZM21.7415 18.3503L16.4062 17.2832V12.1406C16.4062 11.752 16.0918 11.4375 15.7031 11.4375C15.3145 11.4375 15 11.752 15 12.1406V22.0778L13.4276 20.218C13.1776 19.9207 12.7354 19.8843 12.4361 20.135C12.1395 20.3856 12.1024 20.8292 12.3537 21.1258L15.4967 24.8432C15.4969 24.8435 15.4969 24.8438 15.4971 24.844C15.4973 24.8444 15.4978 24.8445 15.498 24.8449L15.4985 24.8454C15.4987 24.8457 15.499 24.8458 15.4992 24.846C15.7433 25.1361 16.0569 25.3505 16.4062 25.4738V26.2969C16.4062 26.6855 16.7207 27 17.1093 27H21.3281C21.7167 27 22.0312 26.6855 22.0312 26.2969V25.4736C22.8497 25.1832 23.4375 24.4011 23.4375 23.4844V20.4185C23.4375 19.4167 22.7248 18.5467 21.7415 18.3503Z" fill="url(#paint0_linear_105_1083)"/>
<defs>
<linearGradient id="paint0_linear_105_1083" x1="16.4063" y1="27" x2="16.4063" y2="5.8125" gradientUnits="userSpaceOnUse">
<stop stop-color="#ADDCFF"/>
<stop offset="0.5028" stop-color="#EAF6FF"/>
<stop offset="1" stop-color="#EAF6FF"/>
</linearGradient>
</defs>
</svg>
