<svg width="22" height="22" viewBox="0 0 22 22" fill="none" xmlns="http://www.w3.org/2000/svg">
<path d="M7.33331 9.31945L11.1129 5.53982C12.1441 4.5087 12.6596 3.99313 13.2286 3.57788C14.396 2.72589 15.75 2.16505 17.1779 1.94203C17.8738 1.83333 18.603 1.83333 20.0612 1.83333C20.1374 1.83333 20.1666 1.86827 20.1666 1.93879C20.1666 3.39702 20.1666 4.12614 20.0579 4.82209C19.8349 6.25 19.2741 7.604 18.4221 8.77139C18.0068 9.34035 17.4913 9.85592 16.4602 10.887L12.6805 14.6667" stroke="black" stroke-width="1.5" stroke-linecap="round" stroke-linejoin="round"/>
<path d="M9.4792 7.42352C7.91822 7.42352 5.95627 7.09284 4.49559 7.69788C3.4253 8.14121 2.63773 9.16774 1.83331 9.97215L4.86378 11.2709C5.66689 11.6151 5.17594 12.6286 5.04299 13.2934C4.89484 14.0341 4.9031 14.0614 5.43726 14.5955L7.40443 16.5627C7.93859 17.0969 7.96588 17.1051 8.70663 16.957C9.37139 16.824 10.3849 16.3331 10.7291 17.1362L12.0278 20.1667C12.8322 19.3623 13.8588 18.5747 14.3021 17.5044C14.9071 16.0437 14.5765 14.0818 14.5765 12.5208" stroke="black" stroke-width="1.5" stroke-linejoin="round"/>
<path d="M17.3636 5.697C17.6565 5.4041 17.6565 4.92923 17.3636 4.63634C17.0708 4.34344 16.5959 4.34344 16.303 4.63634L17.3636 5.697ZM14.5947 6.34467C14.3018 6.63756 14.3018 7.11244 14.5947 7.40533C14.8875 7.69822 15.3624 7.69822 15.6553 7.40533L14.5947 6.34467ZM16.303 4.63634L14.5947 6.34467L15.6553 7.40533L17.3636 5.697L16.303 4.63634ZM12.8111 4.41634C14.4348 4.4645 15.5808 4.95478 16.3336 5.72627C17.0892 6.50066 17.538 7.64999 17.5836 9.1889L19.083 9.14443C19.0295 7.34078 18.494 5.79249 17.4072 4.67871C16.3176 3.56202 14.7631 2.97358 12.8555 2.917L12.8111 4.41634Z" fill="black"/>
<path d="M11 18.3333L10.0833 19.25" stroke="black" stroke-width="1.5" stroke-linecap="round" stroke-linejoin="round"/>
<path d="M3.66667 11L2.75 11.9167" stroke="black" stroke-width="1.5" stroke-linecap="round" stroke-linejoin="round"/>
</svg>
