<svg width="40" height="41" viewBox="0 0 40 41" fill="none" xmlns="http://www.w3.org/2000/svg">
<rect width="40" height="41" rx="20" fill="#EE564E"/>
<path d="M25 13C25 13.8284 24.3284 14.5 23.5 14.5C22.6716 14.5 22 13.8284 22 13C22 12.1716 22.6716 11.5 23.5 11.5C24.3284 11.5 25 12.1716 25 13Z" stroke="white" stroke-width="1.5"/>
<path d="M23 29.4999L22.3359 26.884C22.1161 26.0182 21.6615 25.2276 21.0207 24.5965L19.5 23.099M14 19.6526C15 17.6828 16.5377 16.5414 20 16.5005M20 16.5005C20.2186 16.4979 20.5444 16.4971 20.8698 16.4972C21.3747 16.4973 21.6271 16.4973 21.8282 16.5913C22.0293 16.6852 22.2356 16.9317 22.6482 17.4246C22.7664 17.5659 22.8878 17.6924 23 17.7766M20 16.5005L18.7309 18.4587C18.0332 19.5353 17.6843 20.0736 17.6707 20.6388C17.6646 20.8906 17.7062 21.1412 17.7931 21.3775C17.9883 21.9081 18.4922 22.3051 19.5 23.099M23 17.7766C24.1547 18.6425 25.9627 18.9912 28 16.6983M23 17.7766L19.5 23.099" stroke="white" stroke-width="1.5" stroke-linecap="round" stroke-linejoin="round"/>
<path d="M12 26.2303L12.6782 26.3916C14.4066 26.8028 16.2032 26.0164 17 24.5" stroke="white" stroke-width="1.5" stroke-linecap="round" stroke-linejoin="round"/>
</svg>
