<svg width="16" height="16" viewBox="0 0 16 16" fill="none" xmlns="http://www.w3.org/2000/svg">
<path d="M10 1.33337L10.3592 2.92776C10.6638 4.28014 11.7199 5.33625 13.0723 5.64089L14.6667 6.00004L13.0723 6.35919C11.7199 6.66383 10.6638 7.71994 10.3592 9.07232L10 10.6667L9.64089 9.07232C9.33625 7.71994 8.28014 6.66383 6.92776 6.35919L5.33337 6.00004L6.92776 5.64089C8.28014 5.33625 9.33625 4.28014 9.64089 2.92776L10 1.33337Z" fill="#9747FF"/>
<path d="M4.66671 8L4.92324 9.13885C5.14084 10.1048 5.89521 10.8592 6.86119 11.0768L8.00004 11.3333L6.86119 11.5899C5.89521 11.8075 5.14085 12.5618 4.92325 13.5278L4.66671 14.6667L4.41017 13.5278C4.19257 12.5618 3.43821 11.8075 2.47222 11.5899L1.33337 11.3333L2.47222 11.0768C3.43821 10.8592 4.19257 10.1048 4.41017 9.13885L4.66671 8Z" fill="#FD3A84"/>
</svg>
