<svg width="22" height="22" viewBox="0 0 22 22" fill="none" xmlns="http://www.w3.org/2000/svg">
<path d="M13.75 1.83334L14.2438 4.02562C14.6627 5.88515 16.1148 7.33729 17.9744 7.75617L20.1666 8.25001L17.9744 8.74385C16.1148 9.16273 14.6627 10.6149 14.2438 12.4744L13.75 14.6667L13.2561 12.4744C12.8373 10.6149 11.3851 9.16273 9.52559 8.74385L7.33331 8.25001L9.52559 7.75617C11.3851 7.33729 12.8373 5.88515 13.2561 4.02562L13.75 1.83334Z" stroke="black" stroke-width="1.5" stroke-linejoin="round"/>
<path d="M6.41665 11L6.76939 12.5659C7.06859 13.8941 8.10583 14.9314 9.43407 15.2306L11 15.5833L9.43407 15.9361C8.10583 16.2353 7.06859 17.2725 6.76939 18.6008L6.41665 20.1667L6.06391 18.6008C5.76471 17.2725 4.72746 16.2353 3.39923 15.9361L1.83331 15.5833L3.39923 15.2306C4.72746 14.9314 5.76471 13.8941 6.06391 12.5659L6.41665 11Z" stroke="black" stroke-width="1.5" stroke-linejoin="round"/>
</svg>
